<svg xmlns="http://www.w3.org/2000/svg" fill="none" viewBox="0 0 129 13">
  <path fill="#FAFAFC" fill-rule="evenodd" d="M6.14295 3.65486c-1.41012 0-2.31716.51867-2.80287 1.66209v-4.94H.89258V12.4484h1.90651l.48692-1.6203c.47075 1.2379 1.39239 1.7979 2.85691 1.7979 2.27254 0 3.23964-1.3457 3.23964-4.48555 0-3.13988-.96707-4.48559-3.23961-4.48559ZM5.1306 10.7148c-1.26201 0-1.80307-.76209-1.80307-2.5742 0-1.8121.54095-2.57429 1.80307-2.57429s1.80296.76215 1.80296 2.57429c0 1.79502-.54095 2.5741-1.80296 2.5741v.0001ZM104.133.37695h2.986l-3.002 6.05964 3.002 6.01181h-2.986l-2.546-5.60859-2.5456 5.60859h-2.9857l3.0024-6.01181L96.0557.37695h2.9857l2.5456 5.62317 2.546-5.62317Zm9.262 5.63089L110.846.37695h-2.985l3.205 6.47062h1.04v5.60083h2.578V6.84757h1.04l3.205-6.47062h-2.985l-2.549 5.63089Zm15.375 4.44436v2.0012h-9.097V8.46821l7.586-6.09h-7.422V.37695h8.933v3.98526l-7.603 6.08999h7.603Zm-35.7871-.60454h-2.6002v2.60014h2.6002V9.84766ZM82.3232 8.14091c0 .29132-.0111.56809-.0341.82865H75.995c.1572 1.37714.7604 1.97084 1.9273 1.97084.8517 0 1.4037-.3229 1.7-1.03026h2.5175c-.458 1.88366-1.789 2.71656-4.2177 2.71656-3.0875 0-4.4005-1.3455-4.4005-4.48579 0-3.13945 1.3132-4.48494 4.4005-4.48494 2.8754 0 4.2123 1.16694 4.3823 3.86388.0126.19878.0188.4058.0188.62106Zm-4.4012-2.7986c-1.2242 0-1.8273.65266-1.9469 2.17754h3.8946c-.1195-1.52488-.7227-2.17754-1.9477-2.17754ZM62.8954 6.86463c0-2.24236-1.4745-3.20866-4.086-3.20866-2.5893 0-3.7101.80476-3.7426 2.67814h2.3177c.0341-.73208.5501-.9918 1.4838-.9918.9688 0 1.5967.26568 1.5967 1.2464v.46983h-1.5727c-1.9871 0-4.1553.16827-4.1553 2.84227 0 1.95539 1.1166 2.72599 2.8243 2.72599.9661 0 1.8993-.1994 2.4757-.9773.2228-.3008.3722-.5631.463-.8269l.4889 1.6266h1.9065V6.86463Zm-4.4756 4.03727c-.6526-.0103-1.2164-.3964-1.219-1.1439-.0052-1.13961.8799-1.26091 1.7752-1.26091h1.4642c.1 1.32164-.5613 2.42701-2.0204 2.40481ZM43.6351 6.32867c-.1366.33986-.1878.68906-.1878 1.38042v4.73851h-2.4475V3.82688h1.905l.4906 1.62562c.393-1.23747 1.3525-1.80384 2.4619-1.79209.5911.00596 1.0396.13666 1.4642.47499.3408.26992.592.65522.7877 1.12849.0259.063.0489.12763.0703.19322.3893-1.25148 1.3533-1.82344 2.4682-1.81185.5911.00596 1.0396.13667 1.4642.47499.3409.26993.592.65523.7877 1.1285.3188.77488.3053 1.76804.2912 2.80802-.0029.21661-.0059.43524-.0059.65436v3.73647H50.749V7.70913c0-.69118-.0511-1.0406-.1878-1.38046-.1955-.49065-.583-.70845-1.025-.70867-.4421-.00022-.8308.21743-1.0265.70867-.1366.33986-.1878.68928-.1878 1.38046v4.73847h-2.4475V7.70909c0-.69118-.0511-1.04056-.1878-1.38042-.1955-.49069-.583-.70856-1.025-.70874-.4421-.00018-.8308.21747-1.0265.70874ZM15.1325 3.65416c-3.0874 0-4.4011 1.34567-4.4011 4.48559 0 3.13995 1.3137 4.48555 4.4011 4.48555 3.0873 0 4.401-1.3457 4.401-4.48555s-1.3138-4.48559-4.401-4.48559Zm0 7.05994c-1.3795 0-1.9707-.7621-1.9707-2.5742 0-1.8121.5912-2.57429 1.9707-2.57429 1.3794 0 1.9706.76211 1.9706 2.57429-.0001 1.79502-.5913 2.5741-1.9706 2.5741v.0001Zm5.7207-2.57435c0-3.13992 1.3137-4.48559 4.4011-4.48559 3.0872 0 4.401 1.34574 4.401 4.48559s-1.3137 4.48555-4.401 4.48555c-3.0874 0-4.4011-1.3456-4.4011-4.48555Zm2.4304.00015c0 1.8121.5912 2.5742 1.9707 2.5742v-.0001c1.3793 0 1.9705-.77908 1.9705-2.5741 0-1.81218-.5911-2.57429-1.9705-2.57429-1.3795 0-1.9707.76219-1.9707 2.57429Zm10.547-.23266 3.1397-4.07898h2.8685L36.238 8.13875l3.6008 4.31015h-2.8685l-3.1397-4.09151v4.09151h-2.4475V3.82826h2.4475v4.07898Zm36.6236-4.07898-3.1397 4.07898V3.82826H64.867v8.62064h2.4475V8.35739l3.1397 4.09151h2.8685l-3.6009-4.31015 3.6009-4.31049h-2.8685Zm17.745 1.9824c-1.363 0-1.7572.51757-1.7572 2.32906v4.30798h-2.4468V3.82678h1.9049l.4888 1.6198c.3265-1.22492 1.0329-1.79242 2.073-1.79242h1.005v2.1565h-1.2677Z" clip-rule="evenodd"/>
</svg>